<svg width="720" height="1280" xmlns="http://www.w3.org/2000/svg" xmlns:xlink="http://www.w3.org/1999/xlink" overflow="hidden"><defs><clipPath id="clip0"><rect x="0" y="0" width="720" height="1280"/></clipPath></defs><g clip-path="url(#clip0)"><rect x="0" y="0" width="720" height="1280" fill="#FFFFFF"/><path d="M0 0 886.984 0.943622" stroke="#000000" stroke-width="2" stroke-miterlimit="8" fill="none" fill-rule="evenodd" transform="matrix(6.12323e-17 1 1 -6.12323e-17 76.0001 114)"/><path d="M241.364 114 75.9999 114" stroke="#000000" stroke-width="2" stroke-miterlimit="8" fill="none" fill-rule="evenodd"/><path d="M241.364 873 75.9999 873" stroke="#000000" stroke-width="2" stroke-miterlimit="8" fill="none" fill-rule="evenodd"/><path d="M241.364 548 75.9999 548" stroke="#000000" stroke-width="2" stroke-miterlimit="8" fill="none" fill-rule="evenodd"/><path d="M241.364 420 75.9999 420" stroke="#000000" stroke-width="2" stroke-miterlimit="8" fill="none" fill-rule="evenodd"/><path d="M241.364 253 75.9999 253" stroke="#000000" stroke-width="2" stroke-miterlimit="8" fill="none" fill-rule="evenodd"/><path d="M242.364 1001 76.9999 1001" stroke="#000000" stroke-width="2" stroke-miterlimit="8" fill="none" fill-rule="evenodd"/><rect x="77.0001" y="115" width="19" height="78" fill="#D8413E"/><text fill="#FFFFFF" font-family="Calibri,Calibri_MSFontService,sans-serif" font-weight="400" font-size="19" transform="matrix(6.12323e-17 1 -1 6.12323e-17 80.7722 124)">10 min</text><rect x="77.0001" y="253" width="19" height="78" fill="#D8413E"/><text fill="#FFFFFF" font-family="Calibri,Calibri_MSFontService,sans-serif" font-weight="400" font-size="19" transform="matrix(6.12323e-17 1 -1 6.12323e-17 80.7722 263)">10 min</text><rect x="77" y="421" width="18" height="78" fill="#D8413E"/><text fill="#FFFFFF" font-family="Calibri,Calibri_MSFontService,sans-serif" font-weight="400" font-size="19" transform="matrix(6.12323e-17 1 -1 6.12323e-17 80.0683 431)">10 min</text><rect x="78" y="675" width="18" height="78" fill="#D8413E"/><text fill="#FFFFFF" font-family="Calibri,Calibri_MSFontService,sans-serif" font-weight="400" font-size="19" transform="matrix(6.12323e-17 1 -1 6.12323e-17 81.012 684)">10 min</text><rect x="78" y="923" width="18" height="78" fill="#D8413E"/><text fill="#FFFFFF" font-family="Calibri,Calibri_MSFontService,sans-serif" font-weight="400" font-size="19" transform="matrix(6.12323e-17 1 -1 6.12323e-17 81.197 932)">10 min</text><path d="M452 253C457.023 253 462.046 253 464.222 243.683 466.398 234.367 463.759 207.215 465.056 197.101 466.352 186.987 469.176 184.993 472 183" stroke="#262626" stroke-width="2" stroke-miterlimit="8" fill="none" fill-rule="evenodd"/><path d="M69 20C69 14.9768 69 9.95372 59.8166 7.77779 50.6331 5.60186 23.8687 8.24075 13.8993 6.94446 3.92984 5.64816 1.96492 2.82406 0 0" stroke="#262626" stroke-width="2" stroke-miterlimit="8" fill="none" fill-rule="evenodd" transform="matrix(-6.12323e-17 -1 -1 6.12323e-17 472 183)"/><path d="M452 419C457.023 419 462.046 419 464.222 407.953 466.398 396.906 463.759 364.712 465.056 352.719 466.352 340.727 469.176 338.364 472 336" stroke="#262626" stroke-width="2" stroke-miterlimit="8" fill="none" fill-rule="evenodd"/><path d="M83 20C83 14.9768 83 9.95372 71.9533 7.77779 60.9065 5.60186 28.7116 8.24075 16.7194 6.94446 4.7272 5.64816 2.3636 2.82406 0 0" stroke="#262626" stroke-width="2" stroke-miterlimit="8" fill="none" fill-rule="evenodd" transform="matrix(-6.12323e-17 -1 -1 6.12323e-17 472 336)"/><path d="M452 549C457.023 549 462.046 549 464.222 540.349 466.398 531.698 463.759 506.485 465.056 497.093 466.352 487.702 469.176 485.851 472 484" stroke="#262626" stroke-width="2" stroke-miterlimit="8" fill="none" fill-rule="evenodd"/><path d="M65 20C65 14.9768 65 9.95372 56.3489 7.77779 47.6978 5.60186 22.485 8.24075 13.0935 6.94446 3.70202 5.64816 1.85101 2.82406 0 0" stroke="#262626" stroke-width="2" stroke-miterlimit="8" fill="none" fill-rule="evenodd" transform="matrix(-6.12323e-17 -1 -1 6.12323e-17 472 484)"/><path d="M452 871C457.023 871 462.046 871 464.222 849.705 466.398 828.41 463.759 766.348 465.056 743.23 466.352 720.113 469.176 715.556 472 711" stroke="#262626" stroke-width="2" stroke-miterlimit="8" fill="none" fill-rule="evenodd"/><path d="M161 20C161 14.9768 161 9.95372 139.572 7.77779 118.144 5.60186 55.6937 8.24075 32.4316 6.94446 9.16962 5.64816 4.58481 2.82406 0 0" stroke="#262626" stroke-width="2" stroke-miterlimit="8" fill="none" fill-rule="evenodd" transform="matrix(-6.12323e-17 -1 -1 6.12323e-17 472 710)"/><path d="M452 1001C457.023 1001 462.046 1001 464.222 992.349 466.398 983.698 463.759 958.485 465.056 949.093 466.352 939.702 469.176 937.851 472 936" stroke="#262626" stroke-width="2" stroke-miterlimit="8" fill="none" fill-rule="evenodd"/><path d="M65 20C65 14.9768 65 9.95372 56.3489 7.77779 47.6978 5.60186 22.485 8.24075 13.0935 6.94446 3.70202 5.64816 1.85101 2.82406 0 0" stroke="#262626" stroke-width="2" stroke-miterlimit="8" fill="none" fill-rule="evenodd" transform="matrix(-6.12323e-17 -1 -1 6.12323e-17 472 936)"/><text font-family="Calibri,Calibri_MSFontService,sans-serif" font-weight="400" font-size="16" transform="translate(258.934 119)">Arrival participant <tspan font-size="16" x="0" y="19">Put on fitness tracker</tspan><tspan font-size="16" x="-0.887543" y="139">Start </tspan><tspan font-size="16" x="33.7524" y="139">of</tspan><tspan font-size="16" x="50.7524" y="139">micro</tspan>-<tspan font-size="16" x="92.6591" y="139">teaching</tspan><tspan font-size="16" x="151.819" y="139">unit</tspan><tspan font-size="16" x="-1.59128" y="306">End </tspan><tspan font-size="16" x="26.5754" y="306">of</tspan><tspan font-size="16" x="43.5754" y="306">micro</tspan>-<tspan font-size="16" x="85.4821" y="306">teaching</tspan><tspan font-size="16" x="144.642" y="306">unit</tspan><tspan font-size="16" x="-1.59128" y="325">First </tspan><tspan font-size="16" x="29.7887" y="325">questionnaire</tspan><tspan font-size="16" x="-0.887543" y="759">End </tspan><tspan font-size="16" x="27.2791" y="759">of</tspan><tspan font-size="16" x="44.2791" y="759">interview</tspan><tspan font-size="16" x="-0.887543" y="778">Second </tspan><tspan font-size="16" x="49.9791" y="778">questionnaire</tspan><tspan font-size="16" x="-1.59128" y="434">Beginning</tspan><tspan font-size="16" x="66.0754" y="434">of</tspan><tspan font-size="16" x="83.0754" y="434">interview</tspan><tspan font-size="16" x="-0.887543" y="887">Take</tspan><tspan font-size="16" x="28.1791" y="887">-</tspan><tspan font-size="16" x="33.0125" y="887">off </tspan><tspan font-size="16" x="54.6924" y="887">fitness</tspan><tspan font-size="16" x="101.192" y="887">tracker</tspan><tspan font-size="16" x="-0.887543" y="906">End </tspan><tspan font-size="16" x="27.2791" y="906">of</tspan><tspan font-size="16" x="44.2791" y="906">study</tspan><tspan font-size="19" x="227.309" y="371">Post</tspan><tspan font-size="19" x="259.896" y="371">-</tspan><tspan font-size="19" x="265.562" y="371">teaching</tspan><tspan font-size="19" x="334.862" y="371">phase</tspan><tspan font-size="19" x="227.309" y="394">(10</tspan><tspan font-size="19" x="251.976" y="394">-</tspan><tspan font-size="19" x="257.642" y="394">15 min)</tspan><tspan font-size="19" x="227.309" y="222">Teaching </tspan><tspan font-size="19" x="297.982" y="222">phase</tspan><tspan font-size="19" x="227.309" y="245">(15</tspan><tspan font-size="19" x="251.976" y="245">-</tspan><tspan font-size="19" x="257.642" y="245">20 min)</tspan><tspan font-size="19" x="227.309" y="69">Pre</tspan><tspan font-size="19" x="252.562" y="69">-</tspan><tspan font-size="19" x="258.229" y="69">teaching</tspan><tspan font-size="19" x="327.529" y="69">phase</tspan><tspan font-size="19" x="227.309" y="92">(10</tspan><tspan font-size="19" x="251.976" y="92">-</tspan><tspan font-size="19" x="257.642" y="92">15 min)</tspan><tspan font-size="19" x="227.309" y="595">Interview </tspan><tspan font-size="19" x="303.349" y="595">phase</tspan><tspan font-size="19" x="227.309" y="618">(45</tspan><tspan font-size="19" x="251.976" y="618">-</tspan><tspan font-size="19" x="257.642" y="618">60 min)</tspan><tspan font-size="19" x="227.309" y="821">End </tspan><tspan font-size="19" x="260.309" y="821">phase</tspan><tspan font-size="19" x="227.309" y="844">(10</tspan><tspan font-size="19" x="251.976" y="844">-</tspan><tspan font-size="19" x="257.642" y="844">15 min)</tspan><tspan font-size="19" x="-154.496" y="167">Teaching </tspan><tspan font-size="19" x="-154.496" y="190">interval</tspan><tspan font-size="19" x="-92.6362" y="190">(I</tspan><tspan font-size="12" x="-82.3028" y="194">2</tspan><tspan font-size="19" x="-75.9695" y="190">)</tspan><tspan font-size="19" x="-154.496" y="29">Pre</tspan><tspan font-size="19" x="-129.243" y="29">-</tspan><tspan font-size="19" x="-123.576" y="29">teaching</tspan><tspan font-size="19" x="-154.496" y="52">interval</tspan><tspan font-size="19" x="-92.6362" y="52">(I</tspan><tspan font-size="12" x="-82.3028" y="56">1</tspan><tspan font-size="19" x="-75.9695" y="52">)</tspan><tspan font-size="19" x="-154.496" y="336">Post</tspan><tspan font-size="19" x="-121.909" y="336">-</tspan><tspan font-size="19" x="-116.243" y="336">teaching</tspan><tspan font-size="19" x="-154.496" y="359">interval</tspan><tspan font-size="19" x="-92.6362" y="359">(I</tspan><tspan font-size="12" x="-82.3028" y="363">3</tspan><tspan font-size="19" x="-75.9695" y="359">)</tspan><tspan font-size="19" x="-154.496" y="587">Interview </tspan><tspan font-size="19" x="-154.496" y="610">interval</tspan><tspan font-size="19" x="-92.6362" y="610">(I</tspan><tspan font-size="12" x="-82.3028" y="614">4</tspan><tspan font-size="19" x="-75.9695" y="610">)</tspan><tspan font-size="19" x="-154.496" y="833">End </tspan><tspan font-size="19" x="-154.496" y="856">interval</tspan><tspan font-size="19" x="-92.6362" y="856">(I</tspan><tspan font-size="12" x="-82.3028" y="860">5</tspan><tspan font-size="19" x="-75.9695" y="856">)</tspan></text><rect x="80" y="1089" width="78" height="18" fill="#D8413E"/><text fill="#FFFFFF" font-family="Calibri,Calibri_MSFontService,sans-serif" font-weight="400" font-size="19" transform="translate(89.9436 1104)">10 min<tspan fill="#000000" font-size="16" x="69.7888" y="-2">: </tspan><tspan fill="#000000" font-size="16" x="77.7888" y="-2">Analyzed</tspan><tspan fill="#000000" font-size="16" x="139.795" y="-2">intervals</tspan><tspan fill="#000000" font-size="16" x="198.722" y="-2">I</tspan><tspan fill="#000000" font-size="11" x="202.722" y="1">n</tspan></text></g></svg>