<svg width="1280" height="720" xmlns="http://www.w3.org/2000/svg" xmlns:xlink="http://www.w3.org/1999/xlink" overflow="hidden"><defs><clipPath id="clip0"><rect x="0" y="0" width="1280" height="720"/></clipPath></defs><g clip-path="url(#clip0)"><rect x="0" y="0" width="1280" height="720" fill="#FFFFFF"/><rect x="460.5" y="23.5001" width="321" height="68" stroke="#000000" stroke-linejoin="round" stroke-miterlimit="10" fill="#EDEDED"/><text font-family="Times New Roman,Times New Roman_MSFontService,sans-serif" font-weight="400" font-size="24" transform="translate(561.26 51)">Professional <tspan font-size="24" x="7.33337" y="29">experience</tspan></text><rect x="39.5001" y="170.5" width="172" height="214" stroke="#000000" stroke-linejoin="round" stroke-miterlimit="10" fill="#F2F2F2"/><text font-family="Times New Roman,Times New Roman_MSFontService,sans-serif" font-weight="700" font-size="24" transform="translate(48.5196 198)">(1)<tspan font-weight="400" font-size="24" x="33.7467" y="58">Potential </tspan><tspan font-weight="400" font-size="24" x="35.08" y="87">stressors</tspan><tspan font-weight="400" font-size="24" x="0.413334" y="115">(e.g., </tspan><tspan font-weight="400" font-size="24" x="55.08" y="115">classroom </tspan><tspan font-weight="400" font-size="24" x="19.08" y="144">disruptions)</tspan></text><rect x="259.5" y="170.5" width="149" height="330" stroke="#000000" stroke-linejoin="round" stroke-miterlimit="10" fill="#F2F2F2"/><text font-family="Times New Roman,Times New Roman_MSFontService,sans-serif" font-weight="700" font-size="24" transform="translate(268.968 198)">(2)<tspan font-weight="400" font-size="24" x="26.2467" y="58">Primary </tspan><tspan font-weight="400" font-size="24" x="21.58" y="87">appraisal</tspan><tspan font-size="24" x="0" y="202">(7)</tspan><tspan font-weight="400" font-size="24" x="4.24667" y="259">Re</tspan><tspan font-weight="400" font-size="24" x="30.9133" y="259">-</tspan><tspan font-weight="400" font-size="24" x="38.9133" y="259">appraisal</tspan></text><rect x="456.5" y="169.5" width="150" height="155" stroke="#000000" stroke-linejoin="round" stroke-miterlimit="10" fill="#F2F2F2"/><text font-family="Times New Roman,Times New Roman_MSFontService,sans-serif" font-weight="700" font-size="24" transform="translate(466.008 197)">(3)<tspan font-weight="400" font-size="24" x="32.9133" y="58">Actual</tspan><tspan font-weight="400" font-size="24" x="23.58" y="87">stressors</tspan></text><rect x="653.5" y="170.5" width="149" height="330" stroke="#000000" stroke-linejoin="round" stroke-miterlimit="10" fill="#F2F2F2"/><text font-family="Times New Roman,Times New Roman_MSFontService,sans-serif" font-weight="700" font-size="24" transform="translate(662.953 198)">(4)<tspan font-weight="400" font-size="24" x="14.2466" y="58">Secondary </tspan><tspan font-weight="400" font-size="24" x="8.58002" y="87">appraisal of </tspan><tspan font-weight="400" font-size="24" x="32.2466" y="115">coping </tspan><tspan font-weight="400" font-size="24" x="19.58" y="144">resources </tspan><tspan font-weight="400" font-size="24" x="40.58" y="173">(e.g., </tspan><tspan font-weight="400" font-size="24" x="16.2466" y="202">classroom</tspan><tspan font-weight="400" font-size="24" x="3.58002" y="231">management</tspan><tspan font-weight="400" font-size="24" x="35.58" y="259">skills</tspan><tspan font-weight="400" font-size="24" x="86.2466" y="259">)</tspan></text><rect x="851.5" y="173.5" width="149" height="271" stroke="#000000" stroke-linejoin="round" stroke-miterlimit="10" fill="#F2F2F2"/><text font-family="Times New Roman,Times New Roman_MSFontService,sans-serif" font-weight="700" font-size="24" transform="translate(860.297 201)">(5)<tspan font-weight="400" font-size="24" x="29.58" y="58">Coping</tspan><tspan font-weight="400" font-size="24" x="5.58002" y="87">mechanisms</tspan><tspan font-weight="400" font-size="24" x="40.58" y="115">(e.g., </tspan><tspan font-weight="400" font-size="24" x="16.2466" y="144">classroom</tspan><tspan font-weight="400" font-size="24" x="3.58002" y="173">management</tspan><tspan font-weight="400" font-size="24" x="9.58002" y="202">techniques</tspan><tspan font-weight="400" font-size="24" x="112.247" y="202">)</tspan></text><rect x="1047.5" y="170.5" width="164" height="243" stroke="#000000" stroke-linejoin="round" stroke-miterlimit="10" fill="#F2F2F2"/><text font-family="Times New Roman,Times New Roman_MSFontService,sans-serif" font-weight="700" font-size="24" transform="translate(1056.57 198)">(6)<tspan font-weight="400" font-size="24" x="4.66663" y="58">Teacher stress</tspan><tspan font-weight="400" font-size="24" x="3.5" y="87">(physiological </tspan><tspan font-weight="400" font-size="24" x="27.1666" y="115">response, </tspan><tspan font-weight="400" font-size="24" x="3.5" y="144">e.g., increased </tspan><tspan font-weight="400" font-size="24" x="23.1666" y="173">heart rate)</tspan></text><path d="M212.5 277.167 253.471 277.167 253.471 277.833 212.5 277.833ZM252.137 273.5 260.137 277.5 252.137 281.5Z"/><path d="M409.5 279.167 450.204 279.167 450.204 279.833 409.5 279.833ZM448.871 275.5 456.871 279.5 448.871 283.5Z"/><path d="M606.5 279.167 648.919 279.167 648.919 279.833 606.5 279.833ZM647.585 275.5 655.585 279.5 647.585 283.5Z"/><path d="M803.5 279.167 844.204 279.167 844.204 279.833 803.5 279.833ZM842.871 275.5 850.871 279.5 842.871 283.5Z"/><path d="M1000.5 281.167 1041.2 281.167 1041.2 281.833 1000.5 281.833ZM1039.87 277.5 1047.87 281.5 1039.87 285.5Z"/><path d="M925.5 444.5 925.5 535.032" stroke="#000000" stroke-width="0.666667" stroke-miterlimit="8" fill="none" fill-rule="evenodd"/><path d="M0.333333-5.48373e-07 0.333427 57.1506-0.333239 57.1506-0.333333 5.48373e-07ZM4.00009 55.8172 0.000104987 63.8172-3.99991 55.8172Z" transform="matrix(1 0 0 -1 320.5 564.317)"/><path d="M0.333333-9.94692e-07 0.333418 28.5157-0.333248 28.5157-0.333333 9.94692e-07ZM4.00008 27.1823 0.000104987 35.1824-3.99992 27.1824Z" transform="matrix(1 0 0 -1 347.5 535.682)"/><path d="M347.5 535.5 925.722 535.5" stroke="#000000" stroke-width="0.666667" stroke-miterlimit="8" fill="none" fill-rule="evenodd"/><path d="M320.5 564.5 1127.54 564.5" stroke="#000000" stroke-width="0.666667" stroke-miterlimit="8" fill="none" fill-rule="evenodd"/><path d="M0 0 0.000104987 150.962" stroke="#000000" stroke-width="0.666667" stroke-miterlimit="8" fill="none" fill-rule="evenodd" transform="matrix(-1 0 0 1 1127.5 413.5)"/><path d="M931.833 132.5 931.833 166.877 931.167 166.877 931.167 132.5ZM935.5 165.544 931.5 173.544 927.5 165.544Z"/><path d="M337.833 132.5 337.833 164.064 337.167 164.064 337.167 132.5ZM341.5 162.731 337.5 170.731 333.5 162.731Z"/><path d="M337.5 132.5 931.773 132.5" stroke="#000000" stroke-width="0.666667" stroke-miterlimit="8" fill="none" fill-rule="evenodd"/><path d="M627.5 91.5001 627.5 132.748" stroke="#000000" stroke-width="0.666667" stroke-miterlimit="8" fill="none" fill-rule="evenodd"/><path d="M730.833 132.5 730.833 164.064 730.167 164.064 730.167 132.5ZM734.5 162.731 730.5 170.731 726.5 162.731Z"/><path d="M1130.83 56.5001 1130.83 164.697 1130.17 164.697 1130.17 56.5001ZM1134.5 163.363 1130.5 171.363 1126.5 163.363Z"/><path d="M781.5 55.5001 1130.26 56.7043" stroke="#000000" stroke-width="0.666667" stroke-miterlimit="8" fill="none" fill-rule="evenodd"/></g></svg>