<svg width="1280" height="720" xmlns="http://www.w3.org/2000/svg" xmlns:xlink="http://www.w3.org/1999/xlink" overflow="hidden"><defs><clipPath id="clip0"><rect x="0" y="0" width="1280" height="720"/></clipPath></defs><g clip-path="url(#clip0)"><rect x="0" y="0" width="1280" height="720" fill="#FFFFFF"/><rect x="460.5" y="23.5001" width="321" height="68" stroke="#000000" stroke-linejoin="round" stroke-miterlimit="10" fill="#EDEDED"/><text font-family="Times New Roman,Times New Roman_MSFontService,sans-serif" font-weight="400" font-size="24" transform="translate(483.764 51)">Teacher c<tspan font-size="24" x="92.3266" y="0">haracteristics</tspan><tspan font-size="24" x="224.993" y="0">(e.g., </tspan><tspan font-size="24" x="19.16" y="29">professional </tspan><tspan font-size="24" x="142.493" y="29">experience</tspan>)</text><rect x="39.5001" y="170.5" width="172" height="214" stroke="#000000" stroke-linejoin="round" stroke-miterlimit="10" fill="#F2F2F2"/><text font-family="Times New Roman,Times New Roman_MSFontService,sans-serif" font-weight="700" font-size="24" transform="translate(48.5196 198)">(1)<tspan font-weight="400" font-size="24" x="33.7467" y="58">Potential </tspan><tspan font-weight="400" font-size="24" x="35.08" y="87">stressors</tspan><tspan font-weight="400" font-size="24" x="0.413334" y="115">(e.g., </tspan><tspan font-weight="400" font-size="24" x="55.08" y="115">classroom </tspan><tspan font-weight="400" font-size="24" x="19.08" y="144">disruptions)</tspan></text><rect x="259.5" y="170.5" width="149" height="155" stroke="#000000" stroke-linejoin="round" stroke-miterlimit="10" fill="#F2F2F2"/><text font-family="Times New Roman,Times New Roman_MSFontService,sans-serif" font-weight="700" font-size="24" transform="translate(268.968 198)">(2)<tspan font-weight="400" font-size="24" x="26.2467" y="58">Primary </tspan><tspan font-weight="400" font-size="24" x="21.58" y="87">appraisal</tspan></text><rect x="456.5" y="169.5" width="150" height="155" stroke="#000000" stroke-linejoin="round" stroke-miterlimit="10" fill="#F2F2F2"/><text font-family="Times New Roman,Times New Roman_MSFontService,sans-serif" font-weight="700" font-size="24" transform="translate(466.008 197)">(3)<tspan font-weight="400" font-size="24" x="32.9133" y="58">Actual</tspan><tspan font-weight="400" font-size="24" x="23.58" y="87">stressors</tspan></text><rect x="653.5" y="170.5" width="149" height="330" stroke="#000000" stroke-linejoin="round" stroke-miterlimit="10" fill="#F2F2F2"/><text font-family="Times New Roman,Times New Roman_MSFontService,sans-serif" font-weight="700" font-size="24" transform="translate(662.953 198)">(4)<tspan font-weight="400" font-size="24" x="14.2466" y="58">Secondary </tspan><tspan font-weight="400" font-size="24" x="8.58002" y="87">appraisal of </tspan><tspan font-weight="400" font-size="24" x="32.2466" y="115">coping </tspan><tspan font-weight="400" font-size="24" x="19.58" y="144">resources </tspan><tspan font-weight="400" font-size="24" x="40.58" y="173">(e.g., </tspan><tspan font-weight="400" font-size="24" x="16.2466" y="202">classroom</tspan><tspan font-weight="400" font-size="24" x="3.58002" y="231">management</tspan><tspan font-weight="400" font-size="24" x="35.58" y="259">skills</tspan><tspan font-weight="400" font-size="24" x="86.2466" y="259">)</tspan></text><rect x="851.5" y="173.5" width="149" height="271" stroke="#000000" stroke-linejoin="round" stroke-miterlimit="10" fill="#F2F2F2"/><text font-family="Times New Roman,Times New Roman_MSFontService,sans-serif" font-weight="700" font-size="24" transform="translate(860.297 201)">(5)<tspan font-weight="400" font-size="24" x="29.58" y="58">Coping</tspan><tspan font-weight="400" font-size="24" x="5.58002" y="87">mechanisms</tspan><tspan font-weight="400" font-size="24" x="40.58" y="115">(e.g., </tspan><tspan font-weight="400" font-size="24" x="16.2466" y="144">classroom</tspan><tspan font-weight="400" font-size="24" x="3.58002" y="173">management</tspan><tspan font-weight="400" font-size="24" x="9.58002" y="202">techniques</tspan><tspan font-weight="400" font-size="24" x="112.247" y="202">)</tspan></text><rect x="1047.5" y="170.5" width="164" height="243" stroke="#000000" stroke-linejoin="round" stroke-miterlimit="10" fill="#F2F2F2"/><text font-family="Times New Roman,Times New Roman_MSFontService,sans-serif" font-weight="700" font-size="24" transform="translate(1056.57 198)">(6)<tspan font-weight="400" font-size="24" x="4.66663" y="58">Teacher stress</tspan><tspan font-weight="400" font-size="24" x="3.5" y="87">(physiological </tspan><tspan font-weight="400" font-size="24" x="27.1666" y="115">response, </tspan><tspan font-weight="400" font-size="24" x="3.5" y="144">e.g., increased </tspan><tspan font-weight="400" font-size="24" x="23.1666" y="173">heart rate)</tspan></text><path d="M212.5 277.167 253.471 277.167 253.471 277.833 212.5 277.833ZM252.137 273.5 260.137 277.5 252.137 281.5Z"/><path d="M409.5 279.167 450.204 279.167 450.204 279.833 409.5 279.833ZM448.871 275.5 456.871 279.5 448.871 283.5Z"/><path d="M606.5 279.167 648.919 279.167 648.919 279.833 606.5 279.833ZM647.585 275.5 655.585 279.5 647.585 283.5Z"/><path d="M803.5 279.167 844.204 279.167 844.204 279.833 803.5 279.833ZM842.871 275.5 850.871 279.5 842.871 283.5Z"/><path d="M1000.5 281.167 1041.2 281.167 1041.2 281.833 1000.5 281.833ZM1039.87 277.5 1047.87 281.5 1039.87 285.5Z"/><path d="M925.5 444.5 925.5 518.879" stroke="#000000" stroke-width="0.666667" stroke-miterlimit="8" fill="none" fill-rule="evenodd"/><path d="M0.333333-1.58308e-07 0.333435 214.394-0.333232 214.394-0.333333 1.58308e-07ZM4.0001 213.061 0.000104987 221.061-3.9999 213.061Z" transform="matrix(1 0 0 -1 337.5 545.561)"/><path d="M0.333333-1.8084e-07 0.333435 186.85-0.333232 186.85-0.333333 1.8084e-07ZM4.0001 185.517 0.000104987 193.517-3.9999 185.517Z" transform="matrix(1 0 0 -1 376.5 518.017)"/><path d="M375.5 518.5 925.314 518.5" stroke="#000000" stroke-width="0.666667" stroke-miterlimit="8" fill="none" fill-rule="evenodd"/><path d="M337.5 546.5 1103.74 546.5" stroke="#000000" stroke-width="0.666667" stroke-miterlimit="8" fill="none" fill-rule="evenodd"/><path d="M1103.5 413.5 1103.5 546.462" stroke="#000000" stroke-width="0.666667" stroke-miterlimit="8" fill="none" fill-rule="evenodd"/><path d="M923.833 132.5 923.833 164.064 923.167 164.064 923.167 132.5ZM927.5 162.731 923.5 170.731 919.5 162.731Z"/><path d="M331.833 132.5 331.833 164.064 331.167 164.064 331.167 132.5ZM335.5 162.731 331.5 170.731 327.5 162.731Z"/><path d="M331.5 132.5 923.821 132.5" stroke="#000000" stroke-width="0.666667" stroke-miterlimit="8" fill="none" fill-rule="evenodd"/><path d="M627.5 91.5001 627.5 132.748" stroke="#000000" stroke-width="0.666667" stroke-miterlimit="8" fill="none" fill-rule="evenodd"/><path d="M1129.5 57.5001 1129.5 170.907" stroke="#000000" stroke-width="0.666667" stroke-miterlimit="8" fill="none" fill-rule="evenodd"/><path d="M1.00563e-07-0.333333 341.331-0.33323 341.331 0.333436-1.00563e-07 0.333333ZM339.996-3.9999 347.996 0.000104987 339.996 4.0001Z" transform="matrix(-1 0 0 1 1129.5 57.5001)"/><path d="M711.833 132.5 711.833 164.064 711.167 164.064 711.167 132.5ZM715.5 162.731 711.5 170.731 707.5 162.731Z"/><rect x="39.5001" y="484.5" width="172" height="213" stroke="#000000" stroke-linejoin="round" stroke-miterlimit="10" fill="#F2F2F2"/><text font-family="Times New Roman,Times New Roman_MSFontService,sans-serif" font-weight="700" font-size="24" transform="translate(48.2114 512)">(8)<tspan font-weight="400" font-size="24" x="33.7467" y="58">Potential </tspan><tspan font-weight="400" font-size="24" x="54.4133" y="87">non</tspan><tspan font-weight="400" font-size="24" x="90.4133" y="87">-</tspan><tspan font-weight="400" font-size="24" x="15.08" y="115">occupational </tspan><tspan font-weight="400" font-size="24" x="35.08" y="144">stressors</tspan></text><rect x="934.5" y="571.5" width="277" height="126" stroke="#000000" stroke-linejoin="round" stroke-miterlimit="10" fill="#F2F2F2"/><text font-family="Times New Roman,Times New Roman_MSFontService,sans-serif" font-weight="700" font-size="24" transform="translate(944.044 599)">(7)<tspan font-weight="400" font-size="24" x="7.7467" y="58">Chronic stress symptoms </tspan></text><path d="M1153.83 413.5 1153.83 565.5 1153.17 565.5 1153.17 413.5ZM1157.5 564.167 1153.5 572.167 1149.5 564.167Z"/><path d="M935.324 635.304 219.158 633.847 219.159 633.18 935.326 634.637ZM220.492 637.516 212.5 633.5 220.508 629.516Z"/><path d="M212.5 592.5 296.198 592.5" stroke="#000000" stroke-width="0.666667" stroke-miterlimit="8" fill="none" fill-rule="evenodd"/><path d="M0.333333-1.30782e-07 0.333436 260.923-0.333231 260.923-0.333333 1.30782e-07ZM4.0001 259.588 0.000104987 267.588-3.9999 259.588Z" transform="matrix(1 0 0 -1 295.5 592.089)"/></g></svg>